<svg width="511" height="511" viewBox="0 0 511 511" fill="none" xmlns="http://www.w3.org/2000/svg">
<rect width="511" height="511" fill="#406580"/>
<path d="M91.4375 425.422H419.562C422.797 425.422 425.422 422.797 425.422 419.562V255.5C425.422 252.266 422.797 249.641 419.562 249.641H261.359V91.4375C261.359 88.2031 258.734 85.5781 255.5 85.5781H91.4375C88.2031 85.5781 85.5781 88.2031 85.5781 91.4375V419.562C85.5781 422.797 88.2031 425.422 91.4375 425.422ZM249.641 319.654C218.709 316.795 194.205 292.291 191.346 261.359H249.641V319.654ZM249.641 331.449V349.068C202.502 346.057 164.943 308.498 161.932 261.359H179.551C182.486 298.783 212.217 328.514 249.641 331.449V331.449ZM261.359 261.359H319.654C316.795 292.291 292.291 316.795 261.359 319.654V261.359ZM191.346 249.641C194.205 218.709 218.709 194.205 249.641 191.346V249.641H191.346ZM249.641 179.551C212.217 182.486 182.486 212.217 179.551 249.641H161.932C164.943 202.502 202.502 164.943 249.641 161.932V179.551ZM150.33 261.359C153.359 314.902 196.098 357.641 249.641 360.67V413.703H179.029C176.053 369.857 141.143 334.947 97.2969 331.971V261.359H150.33ZM97.2969 367.174C121.754 369.945 141.055 389.246 143.826 413.703H97.2969V367.174ZM155.627 413.703C152.762 382.754 128.246 358.238 97.2969 355.373V343.613C134.721 346.549 164.451 376.279 167.387 413.703H155.627ZM343.613 413.703C346.549 376.279 376.279 346.549 413.703 343.613V355.373C382.754 358.238 358.238 382.754 355.373 413.703H343.613ZM367.174 413.703C369.945 389.246 389.246 369.945 413.703 367.174V413.703H367.174ZM413.703 331.971C369.857 334.947 334.947 369.857 331.971 413.703H261.359V360.67C314.902 357.641 357.641 314.902 360.67 261.359H413.703V331.971ZM349.068 261.359C346.057 308.498 308.498 346.057 261.359 349.068V331.449C298.783 328.514 328.514 298.783 331.449 261.359H349.068ZM249.641 150.33C196.098 153.359 153.359 196.098 150.33 249.641H97.2969V179.029C141.143 176.053 176.053 141.143 179.029 97.2969H249.641V150.33ZM167.387 97.2969C164.451 134.721 134.721 164.451 97.2969 167.387V155.627C128.246 152.762 152.762 128.246 155.627 97.2969H167.387ZM143.826 97.2969C141.055 121.754 121.754 141.055 97.2969 143.826V97.2969H143.826Z" fill="white"/>
<path d="M276.594 181.883L281.908 192.506C282.541 193.783 283.244 195.031 283.988 196.262L273.348 230.305C272.375 233.393 274.092 236.68 277.18 237.652C277.748 237.828 278.34 237.922 278.938 237.922C279.535 237.922 280.127 237.834 280.695 237.658L314.141 227.199L334.063 239.152C339.113 242.176 344.885 243.781 350.774 243.781H369.664C387.617 243.781 402.166 229.232 402.172 211.285C402.172 207.148 401.381 203.053 399.846 199.209L396.576 191.047C402.91 174.986 402.488 157.045 395.404 141.295L429.483 107.211C431.768 104.92 431.768 101.217 429.483 98.9258L411.987 81.4355C409.701 79.1504 405.987 79.1504 403.701 81.4355L371.334 113.803C364.227 109.297 356.293 106.244 348.002 104.82L343.203 104.018C339.752 103.443 336.26 103.156 332.762 103.156H325.016C294.957 103.309 270.717 127.795 270.863 157.848C270.904 166.191 272.867 174.418 276.594 181.883V181.883ZM305.059 168.107C309.037 155.516 320.709 146.949 333.91 146.92C334.895 146.92 335.897 146.967 336.893 147.066C341.815 147.576 346.537 149.299 350.633 152.082L339.248 163.467L347.533 171.752L358.918 160.367C361.701 164.463 363.424 169.186 363.934 174.107C365.317 188.352 356.539 201.623 342.893 205.936L287.861 223.133L305.059 168.107ZM385.672 186.752L384.822 188.873C384.272 190.273 384.272 191.826 384.822 193.227L388.959 203.562C393.225 214.209 388.057 226.303 377.41 230.568C374.944 231.559 372.319 232.063 369.664 232.063H350.774C347.012 232.068 343.315 231.061 340.08 229.133L329.111 222.553L346.385 217.15C365.358 211.18 377.551 192.734 375.617 172.941C374.832 165.324 371.961 158.076 367.32 151.988L372.711 146.598L377.27 151.156C379.555 153.441 383.27 153.441 385.555 151.156L386.381 150.336C390.529 162.166 390.278 175.092 385.672 186.752V186.752ZM407.844 93.8633L417.049 103.068L381.389 138.729L372.184 129.523L407.844 93.8633ZM292.414 130.191C300.459 120.488 312.412 114.875 325.016 114.875H332.762C335.615 114.881 338.463 115.115 341.276 115.578L346.074 116.381C351.963 117.371 357.641 119.363 362.856 122.275L359.756 125.381C357.471 127.672 357.471 131.381 359.756 133.666L364.403 138.313L359.012 143.703C340.678 129.752 314.504 133.303 300.547 151.637C297.576 155.539 295.32 159.928 293.879 164.609L288.951 180.389L287.076 176.639C285.348 173.176 284.1 169.49 283.356 165.693C280.819 153.09 284.153 140.012 292.414 130.162V130.191Z" fill="white"/>
</svg>
