<svg width="511" height="511" viewBox="0 0 511 511" fill="none" xmlns="http://www.w3.org/2000/svg">
<rect width="511" height="511" fill="#367CBD"/>
<path d="M420 113H90C71.784 113.018 57.0215 125.277 57 140.404V250.019C57.0215 265.146 71.784 277.405 90 277.423H420C438.216 277.405 452.979 265.146 453 250.019V140.404C452.979 125.277 438.216 113.018 420 113ZM103.2 123.962H406.8V140.404C406.8 149.485 397.935 156.846 387 156.846H123C112.065 156.846 103.2 149.485 103.2 140.404V123.962ZM406.8 266.462H103.2V260.981H406.8V266.462ZM406.8 250.019H103.2V244.538H406.8V250.019ZM406.8 233.577H103.2V228.096H406.8V233.577ZM439.8 250.019C439.8 259.1 430.935 266.462 420 266.462V222.615C420 219.589 417.045 217.135 413.4 217.135H96.6C92.9551 217.135 90 219.589 90 222.615V266.462C79.0646 266.462 70.2 259.1 70.2 250.019V140.404C70.2 131.323 79.0646 123.962 90 123.962V140.404C90.0214 155.531 104.784 167.79 123 167.808H387C405.216 167.79 419.979 155.531 420 140.404V123.962C430.935 123.962 439.8 131.323 439.8 140.404V250.019Z" fill="white"/>
<path d="M274.8 200.692H222C218.355 200.692 215.4 203.146 215.4 206.173C215.4 209.2 218.355 211.654 222 211.654H274.8C278.445 211.654 281.4 209.2 281.4 206.173C281.4 203.146 278.445 200.692 274.8 200.692Z" fill="white"/>
<path d="M393.6 178.769H387C383.355 178.769 380.4 181.223 380.4 184.25C380.4 187.277 383.355 189.731 387 189.731H393.6C397.245 189.731 400.2 187.277 400.2 184.25C400.2 181.223 397.245 178.769 393.6 178.769Z" fill="white"/>
<path d="M420 178.769H413.4C409.755 178.769 406.8 181.223 406.8 184.25C406.8 187.277 409.755 189.731 413.4 189.731H420C423.645 189.731 426.6 187.277 426.6 184.25C426.6 181.223 423.645 178.769 420 178.769Z" fill="white"/>
<path d="M268.2 293.865C268.2 290.839 265.245 288.385 261.6 288.385C257.955 288.385 255 290.839 255 293.865C255.12 298.728 253.176 303.469 249.509 307.26C239.231 318.846 239.231 334.638 249.509 346.223C256.829 354.126 256.829 365.131 249.509 373.035C244.392 378.633 241.679 385.492 241.8 392.519C241.8 395.546 244.755 398 248.4 398C252.045 398 255 395.546 255 392.519C254.88 387.654 256.823 382.908 260.491 379.113C270.76 367.521 270.76 351.731 260.491 340.14C253.171 332.24 253.171 321.238 260.491 313.339C265.608 307.745 268.321 300.889 268.2 293.865Z" fill="white"/>
<path d="M215.4 293.865C215.4 290.839 212.445 288.385 208.8 288.385C205.155 288.385 202.2 290.839 202.2 293.865C202.32 298.728 200.376 303.469 196.709 307.26C186.431 318.846 186.431 334.638 196.709 346.223C204.029 354.126 204.029 365.131 196.709 373.035C191.592 378.633 188.879 385.492 189 392.519C189 395.546 191.955 398 195.6 398C199.245 398 202.2 395.546 202.2 392.519C202.08 387.654 204.023 382.908 207.691 379.113C217.96 367.521 217.96 351.731 207.691 340.14C200.371 332.24 200.371 321.238 207.691 313.339C212.808 307.745 215.521 300.889 215.4 293.865Z" fill="white"/>
<path d="M321 293.865C321 290.839 318.045 288.385 314.4 288.385C310.755 288.385 307.8 290.839 307.8 293.865C307.919 298.728 305.976 303.469 302.309 307.26C292.031 318.846 292.031 334.638 302.309 346.223C309.629 354.126 309.629 365.131 302.309 373.035C297.192 378.633 294.479 385.492 294.6 392.519C294.6 395.546 297.555 398 301.2 398C304.845 398 307.8 395.546 307.8 392.519C307.679 387.654 309.623 382.908 313.291 379.113C323.56 367.521 323.56 351.731 313.291 340.14C305.971 332.24 305.971 321.238 313.291 313.339C318.408 307.745 321.121 300.889 321 293.865Z" fill="white"/>
</svg>
