<svg width="511" height="511" viewBox="0 0 511 511" fill="none" xmlns="http://www.w3.org/2000/svg">
<rect width="511" height="511" fill="#FF7A00"/>
<g clip-path="url(#clip0)">
<path d="M160.634 358.366C154.944 352.676 147.38 349.543 139.335 349.543C134.582 349.543 130.001 350.645 125.871 352.713C85.2885 295.216 85.1478 216.427 126.214 158.791C128.492 155.593 127.747 151.154 124.549 148.876C121.352 146.597 116.912 147.342 114.634 150.54C91.9813 182.332 80.3603 219.875 81.0272 259.11C81.662 296.448 93.3854 331.867 114.984 361.934C106.402 373.707 107.418 390.345 118.036 400.964C123.908 406.836 131.621 409.772 139.335 409.772C147.048 409.772 154.761 406.836 160.634 400.964C172.378 389.219 172.378 370.111 160.634 358.366ZM150.579 390.909C144.377 397.109 134.29 397.109 128.09 390.909C121.889 384.708 121.889 374.619 128.09 368.419C131.094 365.416 135.087 363.761 139.334 363.761C143.581 363.761 147.575 365.416 150.578 368.419C156.78 374.62 156.78 384.709 150.579 390.909Z" fill="white"/>
<path d="M371.035 393.736C368.738 390.554 364.295 389.837 361.111 392.137C340.787 406.823 317.939 416.552 293.203 421.054C287.471 422.098 281.626 420.562 277.166 416.841C272.738 413.147 270.2 407.719 270.2 401.952V349.841H270.82C279.052 349.841 285.75 343.144 285.75 334.912V322.909C309.832 313.716 326.984 290.379 326.984 263.108V229.448C338.442 226.319 346.891 215.825 346.891 203.389C346.891 189.698 336.651 178.361 323.43 176.614V132.295C323.43 120.535 313.862 110.967 302.102 110.967C290.341 110.967 280.773 120.535 280.773 132.295V176.373H245.227V132.295C245.227 120.535 235.659 110.967 223.898 110.967C212.138 110.967 202.57 120.535 202.57 132.295V176.614C189.349 178.361 179.109 189.698 179.109 203.389C179.109 215.825 187.558 226.319 199.016 229.448V263.108C199.016 290.379 216.168 313.716 240.25 322.909V334.912C240.25 343.145 246.948 349.842 255.18 349.842H255.981V401.952C255.981 411.949 260.382 421.355 268.056 427.759C274.181 432.869 281.814 435.595 289.654 435.595C291.679 435.595 293.718 435.413 295.749 435.044C322.588 430.158 347.38 419.6 369.437 403.662C372.619 401.362 373.335 396.918 371.035 393.736ZM294.993 132.295C294.993 128.375 298.182 125.186 302.102 125.186C306.022 125.186 309.212 128.375 309.212 132.295V176.373H294.993V132.295ZM216.79 132.295C216.79 128.375 219.979 125.186 223.899 125.186C227.819 125.186 231.009 128.375 231.009 132.295V176.373H216.79V132.295ZM193.329 203.389C193.329 196.333 199.07 190.592 206.126 190.592H319.876C326.932 190.592 332.673 196.333 332.673 203.389C332.673 210.445 326.932 216.186 319.876 216.186H206.126C199.07 216.186 193.329 210.445 193.329 203.389ZM213.235 263.108V230.404H312.766V263.108C312.766 290.548 290.441 312.873 263.001 312.873C235.56 312.873 213.235 290.548 213.235 263.108ZM263.27 335.623C263.21 335.622 263.151 335.614 263.092 335.614C263.032 335.614 262.973 335.622 262.913 335.623H255.182C254.788 335.623 254.469 335.304 254.469 334.912V326.522C257.261 326.896 260.109 327.092 263.001 327.092C265.893 327.092 268.74 326.896 271.532 326.522V334.912C271.532 335.304 271.213 335.623 270.821 335.623H263.27Z" fill="white"/>
<path d="M391.518 374.467C388.7 371.836 384.31 371.938 381.616 374.661C381.561 374.717 381.506 374.774 381.454 374.829C378.775 377.699 378.931 382.197 381.801 384.877C383.171 386.156 384.912 386.789 386.65 386.789C388.486 386.789 390.318 386.081 391.703 384.682C391.757 384.627 391.812 384.57 391.864 384.515C394.544 381.644 394.388 377.146 391.518 374.467Z" fill="white"/>
<path d="M444.518 242.709C441.35 199.187 422.591 158.203 391.697 127.308C361.331 96.9401 320.768 78.3519 277.48 74.9686C234.719 71.6251 192.162 83.229 157.633 107.64C154.427 109.906 153.665 114.343 155.932 117.549C158.197 120.754 162.635 121.517 165.841 119.25C231.868 72.572 324.642 80.3575 381.643 137.362C440.549 196.271 447.672 287.751 398.578 354.88C396.261 358.05 396.951 362.497 400.12 364.816C401.386 365.741 402.855 366.187 404.312 366.187C406.502 366.187 408.664 365.178 410.056 363.274C435.414 328.598 447.654 285.781 444.518 242.709Z" fill="white"/>
<path d="M143.498 128.13C140.709 125.366 136.207 125.385 133.443 128.174L133.327 128.292C130.563 131.081 130.584 135.582 133.372 138.347C134.759 139.72 136.568 140.406 138.377 140.406C140.206 140.406 142.036 139.704 143.427 138.302L143.543 138.184C146.307 135.395 146.286 130.894 143.498 128.13Z" fill="white"/>
<path d="M279.031 260.475C277.757 258.289 275.418 256.946 272.888 256.946H267.808L277.165 245.126C279.602 242.047 279.082 237.576 276.003 235.139C272.925 232.701 268.453 233.223 266.016 236.3L247.538 259.642C245.845 261.78 245.525 264.697 246.712 267.151C247.899 269.606 250.386 271.165 253.112 271.165H260.691L251.984 286.536C250.049 289.953 251.251 294.291 254.666 296.226C255.774 296.853 256.976 297.151 258.164 297.151C260.643 297.15 263.049 295.853 264.358 293.543L279.075 267.559C280.322 265.358 280.305 262.66 279.031 260.475Z" fill="white"/>
</g>
<defs>
<clipPath id="clip0">
<rect width="364" height="364" fill="white" transform="translate(81 73)"/>
</clipPath>
</defs>
</svg>
