<svg width="511" height="511" viewBox="0 0 511 511" fill="none" xmlns="http://www.w3.org/2000/svg">
<rect width="511" height="511" fill="#BC6600"/>
<path d="M418.082 238.204H293.551V92.9184C293.551 89.098 290.454 86 286.633 86H92.9184C89.0974 86 86 89.098 86 92.9184V418.082C86 421.902 89.0974 425 92.9184 425H276.255C280.076 425 283.173 421.902 283.173 418.082V397.326H366.194V418.082C366.194 421.902 369.291 425 373.112 425H397.326C401.148 425 404.245 421.902 404.245 418.082V397.326H407.704C411.525 397.326 414.622 394.228 414.622 390.408V276.255H418.082C421.903 276.255 425 273.157 425 269.337V245.122C425 241.302 421.903 238.204 418.082 238.204ZM182.857 411.163H99.8367V352.357H182.857V411.163ZM182.857 338.52H99.8367V99.8367H182.857V338.52ZM245.122 411.163H196.694V99.8367H279.714V238.204H227.827C224.006 238.204 220.908 241.302 220.908 245.122V269.337C220.908 273.157 224.006 276.255 227.827 276.255H234.745V390.408C234.745 394.228 237.842 397.326 241.663 397.326H245.122V411.163ZM269.337 411.163H258.959V397.326H269.337V411.163ZM390.408 411.163H380.031V397.326H390.408V411.163ZM400.786 383.49H248.582V335.061H400.786V383.49ZM400.786 321.224H248.582V276.255H400.786V321.224ZM411.163 262.418H234.745V252.041H411.163V262.418Z" fill="white"/>
<path d="M335.061 290.092H314.306V303.929H335.061V290.092Z" fill="white"/>
<path d="M335.061 348.898H314.306V362.735H335.061V348.898Z" fill="white"/>
<path d="M224.368 196.694H210.531V224.367H224.368V196.694Z" fill="white"/>
<path d="M169.02 196.694H155.184V224.367H169.02V196.694Z" fill="white"/>
<path d="M151.724 373.112H130.969V386.949H151.724V373.112Z" fill="white"/>
</svg>
