<svg width="511" height="511" viewBox="0 0 511 511" fill="none" xmlns="http://www.w3.org/2000/svg">
<rect width="511" height="511" fill="#2697FF"/>
<g clip-path="url(#clip0)">
<path d="M352.436 271.465V284.785C352.436 289.116 348.927 292.625 344.597 292.625H305.892C301.562 292.625 298.053 289.116 298.053 284.785V271.465C298.053 267.667 300.752 264.503 304.336 263.781V248.786C304.336 246.11 302.159 243.933 299.483 243.933H297.89C290.68 256.912 277.08 265.039 261.909 265.039C246.738 265.039 233.14 256.912 225.929 243.933H166.404C162.073 243.933 158.564 240.424 158.564 236.093V210.207C158.564 205.876 162.073 202.367 166.404 202.367H226.734C231.697 194.245 239.299 188.168 248.112 185.025V175.289C248.112 174.752 248.166 174.228 248.27 173.721H227.226C222.895 173.721 219.386 170.212 219.386 165.882V154.656C219.386 150.326 222.895 146.817 227.226 146.817H248.111V145.839C248.111 141.509 251.62 138 255.95 138H267.866C272.197 138 275.705 141.509 275.705 145.839V146.817H296.592C300.922 146.817 304.431 150.326 304.431 154.656V165.882C304.431 170.212 300.922 173.721 296.592 173.721H275.548C275.65 174.228 275.705 174.752 275.705 175.289V185.025C284.518 188.168 292.12 194.244 297.083 202.367H312.174C330.632 202.367 345.649 217.383 345.649 235.842V263.704C349.481 264.219 352.436 267.493 352.436 271.465ZM344.28 346.741C344.186 346.27 344.05 345.814 343.875 345.377L332.221 308.249C331.197 304.98 328.166 302.757 324.742 302.757C321.318 302.757 318.288 304.98 317.263 308.249L305.435 345.931C305.376 346.119 305.325 346.309 305.281 346.499C304.654 348.487 304.338 350.532 304.338 352.594C304.338 363.846 313.492 372.999 324.743 372.999C335.994 372.999 345.149 363.845 345.149 352.594C345.148 350.617 344.855 348.654 344.28 346.741Z" fill="white"/>
</g>
<defs>
<clipPath id="clip0">
<rect width="235" height="235" fill="white" transform="translate(138 138)"/>
</clipPath>
</defs>
</svg>
