<svg width="830" height="616" viewBox="0 0 830 616" fill="none" xmlns="http://www.w3.org/2000/svg">
<path fill-rule="evenodd" clip-rule="evenodd" d="M119 358.908C121.785 357.219 125.232 358.65 126.324 355.629C127.209 353.182 129.736 343.567 127.584 341.6C121.954 336.453 143.799 328.674 147.903 325.747C149.011 329.465 155.831 330.006 156.103 333.918C158.286 332.106 161.173 331.033 163.6 329.474C166.913 327.348 165.528 323.494 168.402 321.083C173.274 326.24 180.568 316.373 186.32 318.671C191.8 320.862 186.742 321.838 185.898 324.583C184.952 327.666 187.4 331.043 187.4 334.142C189.832 331.639 195.202 334.796 198.482 332.978C203.325 330.291 206.333 325.186 210.019 321.582C211.931 319.715 219.705 316.717 220.115 315.022C221.207 310.542 225.874 309.469 230.51 307.891C241.296 304.215 243.229 287.996 242.969 280.249C242.77 274.353 243.443 269.025 242.514 263.138C241.625 257.492 250.526 256.043 253.512 251.577C260.547 241.054 260.01 234.395 274.307 226.645C280.323 223.384 283.988 219.55 287.983 215.051C291.961 210.572 289.087 204.031 290.702 198.893C292.123 194.382 294.888 175.012 295.131 169.933C295.407 164.192 299.572 159.159 300.754 153.564C301.898 148.148 299.917 142.421 301.443 137.06C304.313 126.966 311.863 118.709 316.186 109.112C318.698 103.537 317.49 97.6589 317.295 91.9737C317.206 89.3515 318.728 86.6029 318.204 84.0391C317.742 81.754 316.037 79.8481 315.254 77.6505C314.011 74.1564 321.647 74.2505 323.397 71.0643C325.816 66.6659 328.365 62.8022 332.538 59.2433C336.532 55.8335 341.53 52.9164 347.647 52.9521C352.827 52.9812 354.897 56.5563 358.205 57.1429C365.894 58.501 373.022 65.1361 375.892 70.7759C378.23 75.3817 386.52 71.9426 391.2 73.0674C393.737 73.6767 394.991 76.4157 397.91 76.3055C400.496 76.205 401.028 75.8354 403.699 76.9245C407.721 78.5646 408.525 76.9179 412.475 76.717C415.113 76.5808 418.016 77.6959 420.436 78.409C424.799 79.699 430.758 82.211 435.52 80.8724C444.032 78.4803 441.418 62.2383 452.764 61.8137C459.214 61.5674 460.936 71.9978 469.359 65.6287C472.919 62.9352 497.522 60.3357 496.036 53.8791C501.131 53.7041 502.84 59.2887 507.732 58.8965C513.606 58.4233 523.673 57.7168 526.116 52.7123C527.03 50.8453 524.675 48.9815 527.764 47.7434C531.552 46.2329 534.661 47.1341 537.617 49.4548C542.35 53.1725 546.738 48.7967 551.97 50.7771C554.56 51.756 556.704 53.3119 559.241 54.3589C562.196 55.5776 564.303 54.5404 567.432 54.9163C574.861 55.8077 577.743 49.2245 585.578 52.7705C588.557 54.1188 598.901 59.3212 598.901 62.3971C598.901 63.9043 601.348 67.6221 603.179 68.2185C610.876 70.724 618.211 79.7801 626.431 73.5958C631.087 70.0887 634.526 69.3886 640.704 71.7969C647.053 74.2765 649.577 73.2733 653.324 67.3789C658.263 59.6112 670.872 79.0722 671.518 80.344C674.409 86.0307 693.645 86.7798 687.764 95.6526C691.503 94.9525 696.025 94.7676 696.958 98.5696C697.429 99.5841 698.075 100.524 698.903 101.38C699.427 103.331 696.092 106.98 696.456 109.013C697.625 115.536 696.239 122.028 695.077 128.246C694.465 131.521 697.51 131.091 702.112 130.442C704.227 130.144 712.294 134.641 710.822 138.21C707.308 146.73 694.064 155.182 686.449 161.496C683.93 163.583 678.859 169.138 675.809 171.188C672.76 173.238 672.464 171.491 670.712 174.165C668.52 177.517 671.202 181.608 668.543 185.037C665.596 188.842 662.665 194.576 662.036 199.055C661.471 203.068 661.54 207.123 661.191 211.149C660.781 215.858 659.989 219.971 659.384 224.444C658.945 227.715 659.994 232.304 658.11 235.299C655.971 238.706 652.51 239.985 649.388 242.743C644.558 247.012 644.962 248.388 644.787 253.395C644.673 256.695 640.245 260.409 638.008 262.765C633.072 267.961 639.946 273.388 643.758 278.339C646.629 282.068 648.724 284.689 646.59 289.826C638.83 295.252 648.239 312.294 640.899 317.892C646.246 320.344 645.269 309.343 647.123 311.206C648.961 319.868 642.171 326.149 642.119 334.639C642.05 345.668 653.685 350.746 648.79 358.37C645.963 362.772 642.989 363.741 645.378 366.579C649.034 370.921 650.586 378.08 657.806 389.372C662.632 396.918 676.421 395.503 677.261 413.679C677.591 420.815 684.564 416.9 687.245 427.845C668.137 431.323 654.047 431.72 634.887 434.994C642.807 445.444 622.254 449.787 618.528 457.615C629.553 460.331 625.891 473.934 625.148 480.582C624.604 485.421 626.902 489.992 626.549 494.782C626.362 497.294 625.678 499.681 624.423 501.85C622.609 504.987 621.337 507.352 620.33 510.664C618.345 517.166 615.58 520.887 620.752 527.175C624.349 531.55 630.974 537.054 635.728 540.643C637.859 542.253 649.138 547.774 650.02 544.422C651.586 538.47 653.544 539.583 660.871 537.901C660.871 547.291 660.477 556.716 660.16 566.103C660.107 567.552 661.463 573.74 658.419 573.983C654.855 574.268 654.059 570.975 656.523 569.403C651.254 564.239 639.437 580.346 633.872 570.674C632.017 567.453 630.278 563.367 627.559 560.447C626.012 558.788 621.869 556.651 621.39 554.691C620.453 550.856 619.502 546.409 613.453 546.273C608.387 546.16 606.224 541.93 601.357 541.463C597.289 541.071 594.796 543.522 591.983 539.953C589.807 537.185 589.742 533.152 586.564 530.88C582.037 527.639 578.819 516.373 574.874 526.479C570.802 536.903 563.676 531.422 553.491 531.71C546.627 531.905 545.004 530.164 539.212 528.067C538.822 527.928 532.733 526.768 532.562 526.79C523.323 528.087 520.563 516.865 523.823 511.747C518.148 512.003 512.443 512.963 507.143 514.567C500.631 516.537 499.253 519.106 491.961 516.674C494.771 512.661 494.935 507.367 492.505 507.459C489.341 507.578 488.017 505.428 485.822 503.766C480.723 499.905 481.425 504.462 480.217 504.795C475.701 506.043 473.718 505.858 469.643 505.018C464.747 504.004 461.705 506.738 457.367 507.962C451.794 509.534 448.25 506.546 444.64 507.044C443.344 507.223 438.191 506.772 438.029 506.84C434.542 508.34 432.755 512.548 427.953 512.454C429.037 509.572 426.873 507.31 426.244 504.603C425.375 500.885 428.589 500.221 429.612 497.362C431.979 490.733 428.733 479.227 423.691 473.895C417.549 467.39 414.919 463.319 415.69 454.898C416.486 446.195 420.288 437.065 417.455 428.404C416.367 425.095 413.42 422.223 413.481 418.713C413.554 414.745 416.29 411.031 416.668 407.093C417.293 400.604 412.033 401.324 405.448 401.276C399.181 401.234 392.95 401.144 386.698 401.356C373.859 401.79 375.817 399.55 379.44 390.874C376.562 390.874 373.737 390.291 370.936 391.166C369.041 391.756 370.436 392.413 369.373 393.139C365.975 395.463 350.367 393.434 345.829 393.434C347.343 396.501 344.531 400.089 345.184 403.365C345.716 406.014 345.841 410.217 340.551 409.316C342.272 413.355 339.212 417.361 340.267 421.439C338.12 421.424 324.149 421.811 321.882 420.761C315.199 417.668 303.423 423.445 301.143 423.607C295.828 422.918 290.83 423.119 285.02 423.142C277.632 421.911 274.435 409.647 270.729 405.323C269.422 403.8 268.408 402.707 267.065 401.194C264.58 398.393 265.716 396.384 265.197 393.398C264.275 388.086 257.322 384.598 258.32 378.956C259.216 373.885 258.3 369.652 255.32 366.687C251.162 362.551 251.237 361.027 244.771 361.274C226.967 361.957 209.316 362.514 191.541 361.705C177.183 361.051 160.373 362.947 146.275 360.779C134.998 359.041 125.653 372.45 119 358.908Z" fill="#0021AF" fill-opacity="0.04"/>
<path d="M119 358.908C121.785 357.219 125.232 358.65 126.324 355.629C127.209 353.182 129.736 343.567 127.584 341.6C121.954 336.453 143.799 328.674 147.903 325.747C149.011 329.465 155.831 330.006 156.103 333.918C158.286 332.106 161.173 331.033 163.6 329.474C166.913 327.348 165.528 323.494 168.402 321.083C173.274 326.24 180.568 316.373 186.32 318.671C191.8 320.862 186.742 321.838 185.898 324.583C184.952 327.666 187.4 331.043 187.4 334.142C189.832 331.639 195.202 334.796 198.482 332.978C203.325 330.291 206.333 325.186 210.019 321.582C211.931 319.715 219.705 316.717 220.115 315.022C221.207 310.542 225.874 309.469 230.51 307.891C241.296 304.215 243.229 287.996 242.969 280.249C242.77 274.353 243.443 269.025 242.514 263.138C241.625 257.492 250.526 256.043 253.512 251.577C260.547 241.054 260.01 234.395 274.307 226.645C280.323 223.384 283.988 219.55 287.983 215.051C291.961 210.572 289.087 204.031 290.702 198.893C292.123 194.382 294.888 175.012 295.131 169.933C295.407 164.192 299.572 159.159 300.754 153.564C301.898 148.148 299.917 142.421 301.443 137.06C304.313 126.966 311.863 118.709 316.186 109.112C318.698 103.537 317.49 97.6589 317.295 91.9737C317.206 89.3515 318.728 86.6029 318.204 84.0391C317.742 81.754 316.037 79.8481 315.254 77.6505C314.011 74.1564 321.647 74.2505 323.397 71.0643C325.816 66.6659 328.365 62.8022 332.538 59.2433C336.532 55.8335 341.53 52.9164 347.647 52.9521C352.827 52.9812 354.897 56.5563 358.205 57.1429C365.894 58.501 373.022 65.1361 375.892 70.7759C378.23 75.3817 386.52 71.9426 391.2 73.0674C393.737 73.6767 394.991 76.4157 397.91 76.3055C400.496 76.205 401.028 75.8354 403.699 76.9245C407.721 78.5646 408.525 76.9179 412.475 76.717C415.113 76.5808 418.016 77.6959 420.436 78.409C424.799 79.699 430.758 82.211 435.52 80.8724C444.032 78.4803 441.418 62.2383 452.764 61.8137C459.214 61.5674 460.936 71.9978 469.359 65.6287C472.919 62.9352 497.522 60.3357 496.036 53.8791C501.131 53.7041 502.84 59.2887 507.732 58.8965C513.606 58.4233 523.673 57.7168 526.116 52.7123C527.03 50.8453 524.675 48.9815 527.765 47.7434C531.552 46.2329 534.661 47.1341 537.617 49.4548C542.35 53.1725 546.738 48.7967 551.97 50.7771C554.56 51.756 556.704 53.3119 559.241 54.3589C562.196 55.5776 564.303 54.5404 567.432 54.9163C574.861 55.8077 577.743 49.2245 585.578 52.7705C588.557 54.1188 598.901 59.3212 598.901 62.3971C598.901 63.9043 601.348 67.6221 603.179 68.2185C610.876 70.724 618.211 79.7801 626.431 73.5958C631.087 70.0887 634.526 69.3886 640.704 71.7969C647.053 74.2765 649.577 73.2733 653.324 67.3789C658.263 59.6112 670.872 79.0722 671.518 80.344C674.409 86.0307 693.645 86.7798 687.764 95.6526C691.503 94.9525 696.025 94.7676 696.958 98.5696C697.429 99.5841 698.075 100.524 698.903 101.38C699.427 103.331 696.092 106.98 696.456 109.013C697.625 115.536 696.239 122.028 695.077 128.246C694.465 131.521 697.51 131.091 702.112 130.442C704.227 130.144 712.294 134.641 710.822 138.21C707.308 146.73 694.064 155.182 686.449 161.496C683.93 163.583 678.859 169.138 675.809 171.188C672.76 173.238 672.464 171.491 670.712 174.165C668.52 177.517 671.202 181.608 668.543 185.037C665.596 188.842 662.665 194.576 662.036 199.055C661.471 203.068 661.54 207.123 661.191 211.149C660.781 215.858 659.989 219.971 659.384 224.444C658.945 227.715 659.994 232.304 658.11 235.299C655.971 238.706 652.51 239.985 649.388 242.743C644.558 247.012 644.962 248.388 644.787 253.395C644.673 256.695 640.245 260.409 638.008 262.765C633.072 267.961 639.946 273.388 643.758 278.339C646.629 282.068 648.724 284.689 646.59 289.826C638.83 295.252 648.239 312.294 640.899 317.892C646.246 320.344 645.269 309.343 647.123 311.206C648.961 319.868 642.171 326.149 642.119 334.639C642.05 345.668 653.685 350.746 648.79 358.37C645.963 362.772 642.989 363.741 645.378 366.579C649.034 370.921 650.586 378.08 657.806 389.372C662.632 396.918 676.421 395.503 677.261 413.679C677.591 420.815 684.564 416.9 687.245 427.845C668.137 431.323 654.047 431.72 634.887 434.994C642.807 445.444 622.254 449.787 618.528 457.615C629.553 460.331 625.891 473.934 625.148 480.582C624.604 485.421 626.902 489.992 626.549 494.782C626.362 497.294 625.678 499.681 624.423 501.85C622.609 504.987 621.337 507.352 620.33 510.664C618.345 517.166 615.58 520.887 620.752 527.175C624.349 531.55 630.974 537.054 635.728 540.643C637.859 542.253 649.138 547.774 650.02 544.422C651.586 538.47 653.544 539.583 660.871 537.901C660.871 547.291 660.477 556.716 660.16 566.103C660.107 567.552 661.463 573.74 658.419 573.983C654.855 574.268 654.059 570.975 656.523 569.403C651.254 564.239 639.437 580.346 633.872 570.674C632.017 567.452 630.278 563.367 627.559 560.447C626.012 558.787 621.869 556.651 621.39 554.691C620.453 550.856 619.502 546.409 613.453 546.273C608.387 546.16 606.224 541.93 601.357 541.463C597.289 541.071 594.796 543.522 591.983 539.953C589.807 537.185 589.742 533.152 586.564 530.88C582.037 527.639 578.819 516.373 574.874 526.479C570.802 536.903 563.676 531.422 553.491 531.71C546.627 531.905 545.004 530.164 539.212 528.067C538.822 527.928 532.733 526.768 532.562 526.79C523.323 528.087 520.563 516.865 523.823 511.747C518.148 512.003 512.443 512.963 507.143 514.567C500.631 516.537 499.253 519.106 491.961 516.674C494.771 512.661 494.935 507.367 492.505 507.459C489.341 507.578 488.017 505.428 485.822 503.766C480.723 499.905 481.425 504.462 480.217 504.795C475.701 506.043 473.718 505.858 469.643 505.018C464.747 504.004 461.705 506.738 457.367 507.962C451.794 509.534 448.25 506.546 444.64 507.044C443.344 507.223 438.191 506.772 438.029 506.84C434.542 508.34 432.755 512.548 427.953 512.454C429.037 509.572 426.873 507.31 426.244 504.603C425.375 500.885 428.589 500.221 429.612 497.362C431.979 490.733 428.733 479.227 423.691 473.895C417.549 467.39 414.919 463.319 415.69 454.898C416.485 446.195 420.288 437.065 417.455 428.404C416.367 425.095 413.42 422.223 413.481 418.713C413.554 414.745 416.291 411.031 416.668 407.093C417.293 400.604 412.033 401.324 405.448 401.276C399.181 401.234 392.95 401.144 386.698 401.356C373.859 401.79 375.817 399.55 379.44 390.874C376.562 390.874 373.737 390.291 370.936 391.166C369.041 391.756 370.436 392.413 369.373 393.139C365.975 395.463 350.367 393.434 345.829 393.434C347.343 396.501 344.531 400.089 345.184 403.365C345.716 406.014 345.841 410.217 340.551 409.316C342.272 413.355 339.212 417.361 340.267 421.439C338.12 421.424 324.149 421.811 321.882 420.761C315.199 417.668 303.423 423.445 301.143 423.607C295.828 422.918 290.83 423.119 285.02 423.142C277.632 421.911 274.435 409.647 270.729 405.323C269.422 403.8 268.408 402.708 267.065 401.194C264.58 398.393 265.716 396.384 265.197 393.398C264.275 388.086 257.322 384.598 258.32 378.956C259.216 373.885 258.3 369.652 255.32 366.687C251.162 362.551 251.237 361.027 244.771 361.274C226.967 361.957 209.316 362.514 191.541 361.705C177.183 361.051 160.373 362.947 146.275 360.778C134.998 359.041 125.653 372.45 119 358.908" stroke="white" stroke-width="0.15502"/>
<g opacity="0.3">
<circle cx="415" cy="277" r="224" fill="#D5D5D5" fill-opacity="0.52"/>
<circle cx="415" cy="277" r="223" stroke="black" stroke-opacity="0.04" stroke-width="2"/>
</g>
<path d="M278.808 182.417L270.467 174.075C271.292 171.967 270.833 169.492 269.092 167.75C267.258 165.917 264.508 165.55 262.308 166.558L266.25 170.5L263.5 173.25L259.467 169.308C258.367 171.508 258.825 174.258 260.658 176.092C262.4 177.833 264.875 178.292 266.983 177.467L275.325 185.808C275.692 186.175 276.242 186.175 276.608 185.808L278.717 183.7C279.175 183.333 279.175 182.692 278.808 182.417Z" fill="#A6A6A6"/>
<path d="M417.808 202.417L409.467 194.075C410.292 191.967 409.833 189.492 408.092 187.75C406.258 185.917 403.508 185.55 401.308 186.558L405.25 190.5L402.5 193.25L398.467 189.308C397.367 191.508 397.825 194.258 399.658 196.092C401.4 197.833 403.875 198.292 405.983 197.467L414.325 205.808C414.692 206.175 415.242 206.175 415.608 205.808L417.717 203.7C418.175 203.333 418.175 202.692 417.808 202.417Z" fill="#A6A6A6"/>
<path d="M541.808 135.417L533.467 127.075C534.292 124.967 533.833 122.492 532.092 120.75C530.258 118.917 527.508 118.55 525.308 119.558L529.25 123.5L526.5 126.25L522.467 122.308C521.367 124.508 521.825 127.258 523.658 129.092C525.4 130.833 527.875 131.292 529.983 130.467L538.325 138.808C538.692 139.175 539.242 139.175 539.608 138.808L541.717 136.7C542.175 136.333 542.175 135.692 541.808 135.417Z" fill="#A6A6A6"/>
<g clip-path="url(#clip0)">
<path d="M336.854 99.1135C334.527 98.2856 331.832 98.9612 330.191 100.99C328.109 103.564 328.508 107.347 331.082 109.429C333.655 111.51 337.438 111.111 339.52 108.538C341.162 106.509 341.26 103.732 339.964 101.629L342.7 98.2474L345.81 100.763L348.325 97.6534L345.216 95.1376L346.473 93.5827L343.364 91.067L336.854 99.1135ZM336.41 106.022C335.718 106.877 334.453 107.011 333.597 106.319C332.742 105.627 332.609 104.361 333.3 103.506C333.992 102.651 335.258 102.517 336.113 103.209C336.968 103.901 337.102 105.167 336.41 106.022Z" fill="#A6A6A6"/>
</g>
<g clip-path="url(#clip1)">
<path d="M524.731 171.114C522.404 170.286 519.709 170.961 518.067 172.99C515.986 175.564 516.385 179.347 518.958 181.429C521.532 183.51 525.315 183.111 527.397 180.538C529.038 178.509 529.136 175.732 527.841 173.629L530.576 170.247L533.686 172.763L536.202 169.653L533.092 167.138L534.35 165.583L531.24 163.067L524.731 171.114ZM524.287 178.022C523.595 178.877 522.329 179.011 521.474 178.319C520.619 177.627 520.485 176.361 521.177 175.506C521.869 174.651 523.135 174.517 523.99 175.209C524.845 175.901 524.979 177.167 524.287 178.022Z" fill="#A6A6A6"/>
</g>
<g clip-path="url(#clip2)">
<path d="M329.859 144.978L335.03 140.26L332.678 137.669L327.495 142.374L322.79 137.191L327.973 132.486L325.62 129.895L320.437 134.6L320.426 134.587C319.274 133.292 316.802 133.173 315.506 134.349L308.393 140.807L307.949 149.482L304.062 153.011L309.943 159.49L313.83 155.961L322.495 156.367L329.622 149.898C330.917 148.721 331.037 146.249 329.859 144.978Z" fill="#C4C4C4"/>
</g>
<g clip-path="url(#clip3)">
<path d="M429.859 88.9783L435.03 84.2602L432.678 81.6687L427.495 86.3739L422.79 81.1911L427.973 76.4859L425.62 73.8945L420.437 78.5997L420.426 78.5867C419.274 77.2922 416.802 77.1728 415.506 78.3491L408.393 84.8069L407.949 93.4824L404.062 97.0112L409.943 103.49L413.83 99.9609L422.495 100.367L429.622 93.8975C430.917 92.7212 431.037 90.2492 429.859 88.9783Z" fill="#C4C4C4"/>
</g>
<path d="M413.457 143.842H411.231V137.905C411.231 136.273 409.895 134.937 408.263 134.937H402.326V132.71C402.326 130.662 400.664 129 398.616 129C396.567 129 394.905 130.662 394.905 132.71V134.937H388.968C387.336 134.937 386.015 136.273 386.015 137.905V143.545H388.226C390.438 143.545 392.234 145.341 392.234 147.552C392.234 149.764 390.438 151.56 388.226 151.56H386V157.2C386 158.832 387.336 160.168 388.968 160.168H394.608V157.942C394.608 155.73 396.404 153.934 398.616 153.934C400.827 153.934 402.623 155.73 402.623 157.942V160.168H408.263C409.895 160.168 411.231 158.832 411.231 157.2V151.263H413.457C415.506 151.263 417.168 149.6 417.168 147.552C417.168 145.504 415.506 143.842 413.457 143.842Z" fill="#898888" fill-opacity="0.59"/>
<path d="M443.289 143.842H441.063V137.905C441.063 136.273 439.727 134.937 438.095 134.937H432.158V132.71C432.158 130.662 430.496 129 428.448 129C426.399 129 424.737 130.662 424.737 132.71V134.937H418.8C417.168 134.937 415.847 136.273 415.847 137.905V143.545H418.058C420.27 143.545 422.066 145.341 422.066 147.552C422.066 149.764 420.27 151.56 418.058 151.56H415.832V157.2C415.832 158.832 417.168 160.168 418.8 160.168H424.44V157.942C424.44 155.73 426.236 153.934 428.448 153.934C430.659 153.934 432.455 155.73 432.455 157.942V160.168H438.095C439.727 160.168 441.063 158.832 441.063 157.2V151.263H443.289C445.338 151.263 447 149.6 447 147.552C447 145.504 445.338 143.842 443.289 143.842Z" fill="#898888" fill-opacity="0.59"/>
<path d="M485 117C485 111.545 489.545 107 495 107C500.455 107 505 111.545 505 117H485ZM485 117C485 122.455 480.455 127 475 127C469.545 127 465 122.455 465 117H485ZM485 117C479.545 117 475 112.455 475 107C475 101.545 479.545 97 485 97V117ZM485 117C490.455 117 495 121.545 495 127C495 132.455 490.455 137 485 137V117Z" fill="#C4C4C4"/>
<path d="M411.501 596.999C344.986 596.999 280.529 573.976 229.113 531.854C177.696 489.731 142.501 431.114 129.525 365.991C116.548 300.868 126.593 233.268 157.948 174.709C189.302 116.151 240.027 70.2566 301.478 44.8468C362.93 19.4369 431.306 16.0836 494.956 35.3581C558.607 54.6326 613.593 95.3423 650.547 150.551C687.501 205.76 704.135 272.051 697.615 338.13C691.096 404.209 661.826 465.988 614.793 512.939C588.158 539.673 556.477 560.867 521.582 575.296C486.686 589.725 449.271 597.102 411.501 596.999V596.999ZM411.501 25.1923C254.184 25.1923 126.197 152.956 126.197 310C126.197 467.044 254.184 594.808 411.501 594.808C568.818 594.808 696.805 467.044 696.805 310C696.805 152.956 568.818 25.1923 411.501 25.1923V25.1923Z" fill="#3B3B44" fill-opacity="0.52"/>
<path d="M472.85 423.34C472.94 422.59 473 421.81 473 421C473 420.19 472.94 419.41 472.82 418.66L477.89 414.7C478.34 414.34 478.46 413.68 478.19 413.17L473.39 404.86C473.09 404.32 472.46 404.14 471.92 404.32L465.95 406.72C464.69 405.76 463.37 404.98 461.9 404.38L461 398.02C460.91 397.42 460.4 397 459.8 397H450.2C449.6 397 449.12 397.42 449.03 398.02L448.13 404.38C446.66 404.98 445.31 405.79 444.08 406.72L438.11 404.32C437.57 404.11 436.94 404.32 436.64 404.86L431.84 413.17C431.54 413.71 431.66 414.34 432.14 414.7L437.21 418.66C437.09 419.41 437 420.22 437 421C437 421.78 437.06 422.59 437.18 423.34L432.11 427.3C431.66 427.66 431.54 428.32 431.81 428.83L436.61 437.14C436.91 437.68 437.54 437.86 438.08 437.68L444.05 435.28C445.31 436.24 446.63 437.02 448.1 437.62L449 443.98C449.12 444.58 449.6 445 450.2 445H459.8C460.4 445 460.91 444.58 460.97 443.98L461.87 437.62C463.34 437.02 464.69 436.21 465.92 435.28L471.89 437.68C472.43 437.89 473.06 437.68 473.36 437.14L478.16 428.83C478.46 428.29 478.34 427.66 477.86 427.3L472.85 423.34ZM455 430C450.05 430 446 425.95 446 421C446 416.05 450.05 412 455 412C459.95 412 464 416.05 464 421C464 425.95 459.95 430 455 430Z" fill="#0021AF" fill-opacity="0.2"/>
<path d="M335.85 295.34C335.94 294.59 336 293.81 336 293C336 292.19 335.94 291.41 335.82 290.66L340.89 286.7C341.34 286.34 341.46 285.68 341.19 285.17L336.39 276.86C336.09 276.32 335.46 276.14 334.92 276.32L328.95 278.72C327.69 277.76 326.37 276.98 324.9 276.38L324 270.02C323.91 269.42 323.4 269 322.8 269H313.2C312.6 269 312.12 269.42 312.03 270.02L311.13 276.38C309.66 276.98 308.31 277.79 307.08 278.72L301.11 276.32C300.57 276.11 299.94 276.32 299.64 276.86L294.84 285.17C294.54 285.71 294.66 286.34 295.14 286.7L300.21 290.66C300.09 291.41 300 292.22 300 293C300 293.78 300.06 294.59 300.18 295.34L295.11 299.3C294.66 299.66 294.54 300.32 294.81 300.83L299.61 309.14C299.91 309.68 300.54 309.86 301.08 309.68L307.05 307.28C308.31 308.24 309.63 309.02 311.1 309.62L312 315.98C312.12 316.58 312.6 317 313.2 317H322.8C323.4 317 323.91 316.58 323.97 315.98L324.87 309.62C326.34 309.02 327.69 308.21 328.92 307.28L334.89 309.68C335.43 309.89 336.06 309.68 336.36 309.14L341.16 300.83C341.46 300.29 341.34 299.66 340.86 299.3L335.85 295.34V295.34ZM318 302C313.05 302 309 297.95 309 293C309 288.05 313.05 284 318 284C322.95 284 327 288.05 327 293C327 297.95 322.95 302 318 302Z" fill="#0021AF" fill-opacity="0.2"/>
<path d="M396.287 437.458L396.27 437.448L322.967 393.457L317.532 302.171L317.438 300.598L393.057 261.933L475.508 299.694L475.474 300.655L472.189 390.789L396.287 437.458Z" fill="#6C63FF"/>
<path opacity="0.3" d="M396.27 437.448L322.967 393.456L317.532 302.171L397.683 339.63L396.27 437.448Z" fill="black"/>
<path opacity="0.1" d="M396.287 437.458L397.683 339.63L475.474 300.655L472.189 390.789L396.287 437.458Z" fill="black"/>
<path d="M369.835 274.057L370.136 273.404L453.067 311.84L449.637 404.89L448.919 404.863L452.33 312.291L369.835 274.057Z" fill="#F2F2F2"/>
<path d="M344.142 287.188L344.455 286.541L425.234 325.78L425.235 326.004L425.933 418.623L425.214 418.628L424.518 326.232L344.142 287.188Z" fill="#F2F2F2"/>
<path d="M319.254 334.255L319.594 333.622L397.161 375.382L474.176 331.012L474.535 331.635L397.173 376.205L319.254 334.255Z" fill="#F2F2F2"/>
<path d="M321.208 367.059L321.545 366.424L396.706 406.362L473.033 362.389L473.392 363.012L396.721 407.184L321.208 367.059Z" fill="#F2F2F2"/>
<path d="M369.602 421.665L368.067 325.74L368.267 325.639L446.016 285.942L446.343 286.583L368.794 326.177L370.321 421.654L369.602 421.665Z" fill="#F2F2F2"/>
<path d="M343.701 406.129L339.917 312.588L340.123 312.484L418.145 273.176L418.469 273.819L340.654 313.023L344.42 406.101L343.701 406.129Z" fill="#F2F2F2"/>
<path d="M243.209 275.361C257.684 275.361 269.418 263.639 269.418 249.18C269.418 234.721 257.684 223 243.209 223C228.734 223 217 234.721 217 249.18C217 263.639 228.734 275.361 243.209 275.361Z" fill="#3F3D56"/>
<path d="M669.714 283.719C670.361 283.719 670.886 283.02 670.886 282.158C670.886 281.296 670.361 280.597 669.714 280.597C669.066 280.597 668.542 281.296 668.542 282.158C668.542 283.02 669.066 283.719 669.714 283.719Z" fill="#FFB9B9"/>
<g filter="url(#filter0_d)">
<rect x="202" y="437" width="426" height="63" rx="9" fill="white"/>
<path d="M251 453L254.48 463.71H265.741L256.631 470.33L260.111 481.04L251 474.42L241.889 481.04L245.369 470.33L236.259 463.71H247.52L251 453Z" fill="#F1BC00"/>
<path d="M333 453L336.48 463.71H347.741L338.631 470.33L342.111 481.04L333 474.42L323.889 481.04L327.369 470.33L318.259 463.71H329.52L333 453Z" fill="#F1BC00"/>
<path d="M415 453L418.48 463.71H429.741L420.631 470.33L424.111 481.04L415 474.42L405.889 481.04L409.369 470.33L400.259 463.71H411.52L415 453Z" fill="#F1BC00"/>
<path d="M497 453L500.48 463.71H511.741L502.631 470.33L506.111 481.04L497 474.42L487.889 481.04L491.369 470.33L482.259 463.71H493.52L497 453Z" fill="#C4C4C4"/>
<path d="M579 453L582.48 463.71H593.741L584.631 470.33L588.111 481.04L579 474.42L569.889 481.04L573.369 470.33L564.259 463.71H575.52L579 453Z" fill="#C4C4C4"/>
</g>
<g clip-path="url(#clip4)">
<path fill-rule="evenodd" clip-rule="evenodd" d="M345.464 231.743C352.256 231.132 359.047 230.521 365.84 229.911C366.878 229.338 367.917 228.765 368.955 228.193C371.334 227.353 373.713 226.284 376.093 225.444C378.213 224.299 379.91 222.953 382.063 222.582C384.532 222.155 388.119 222.314 390.758 223.383C396.339 230.483 401.919 237.583 407.5 244.684C412.129 248.73 416.757 252.776 421.387 256.823C423.376 259.189 423.139 262.946 421.906 264.61C420.847 266.038 416.974 266.976 414.508 266.099C414.681 268.045 414.205 270.336 413.081 271.595C411.566 272.473 408.884 273.237 406.981 272.855C407.5 274.496 406.637 276.784 405.423 277.779C404.171 278.807 402.438 279.459 399.583 278.924C399.41 279.764 399.424 280.842 398.789 281.363C397.607 282.331 395.776 282.742 394.132 283.391C370.771 272.588 362.336 272.435 350.655 270.45C348.968 259.112 347.151 243.081 345.464 231.743L345.464 231.743Z" fill="#B4763A"/>
<path fill-rule="evenodd" clip-rule="evenodd" d="M345.464 231.743C352.256 231.132 359.047 230.521 365.84 229.911C366.878 229.338 367.917 228.765 368.955 228.193C371.334 227.353 373.713 226.284 376.093 225.444C378.213 224.299 379.91 222.953 382.063 222.582C384.532 222.155 388.119 222.314 390.758 223.383C396.339 230.483 401.919 237.583 407.5 244.684C412.129 248.73 416.757 252.776 421.387 256.823C423.376 259.189 423.139 262.946 421.906 264.61C420.847 266.038 416.974 266.976 414.508 266.099C414.681 268.045 414.205 270.336 413.081 271.595C411.566 272.473 408.884 273.237 406.981 272.855C407.5 274.496 406.637 276.784 405.423 277.779C404.171 278.807 402.438 279.459 399.583 278.924C399.41 279.764 399.424 280.842 398.789 281.363C397.607 282.331 395.776 282.742 394.132 283.391C370.771 272.588 362.336 272.435 350.655 270.45C348.968 259.112 347.151 243.081 345.464 231.743Z" fill="url(#paint0_linear)"/>
<path fill-rule="evenodd" clip-rule="evenodd" d="M365.955 267.896C364.999 268.82 363.967 271.325 363.569 272.754C363.508 272.971 364.262 272.595 364.487 272.754C365.271 273.701 365.641 274.226 366.873 275.103C367.484 275.537 368.143 275.931 368.8 276.317C369.703 276.849 370.596 277.406 371.553 277.856C372.89 278.485 374.078 279.488 375.682 279.556C378.083 281.398 379.479 282.136 382.29 282.795C382.875 284.106 383.741 285.495 385.226 285.872C386.58 286.216 388.852 285.762 390.365 285.387C391.744 285.044 393.504 283.674 394.22 283.038C395.052 282.3 394.753 281.031 394.22 279.961C393.86 279.24 392.408 278.739 391.375 278.342C391.946 277.713 392.728 277.263 392.752 276.641C392.803 275.239 392.382 274.133 391.191 272.997C389.907 271.773 387.434 271.239 385.869 272.188C385.966 271.212 386.171 269.81 385.135 268.787C383.56 267.231 381.765 266.602 379.445 266.681C375.672 266.811 374.864 268.426 372.929 269.677C371.57 270.556 369.249 271.517 368.249 271.378C367.964 270.734 368.062 269.79 367.423 269.029C367.025 268.556 366.651 268.226 365.955 267.896L365.955 267.896Z" fill="#C08D5B"/>
<path fill-rule="evenodd" clip-rule="evenodd" d="M338.354 222.815C347.42 224.883 356.554 226.757 365.554 229.018C369.748 230.071 366.829 244.82 364.537 252.007C362.712 257.733 357.632 262.949 353.202 267.754C351.657 269.431 348.421 271.836 346.596 271.542C344.731 271.242 336.426 268.138 331.341 266.436L338.353 222.815L338.354 222.815Z" fill="black"/>
<path fill-rule="evenodd" clip-rule="evenodd" d="M415.416 224.528L413.858 224.986L413.209 226.59L423.202 258.196L424.76 259.113L425.668 259.342L426.706 258.884L427.615 254.417L426.317 243.767L422.813 231.629L418.011 224.987L415.415 224.529L415.416 224.528Z" fill="#404F60"/>
<path d="M417.195 225.463C415.638 225.807 412.71 226.999 411.147 226.818C409.438 226.619 406.206 225.771 402.308 225.193C398.337 224.604 396.288 223.382 392.705 223.254C388.555 223.105 387.384 225.443 385.307 227.276C381.457 229.604 375.693 231.884 374.535 233.574C373.28 235.406 371.334 239.682 371.291 241.361C370.209 243.194 368.557 244.9 368.413 246.939C368.203 249.92 372.51 250.284 374.405 249.606C375.793 249.11 376.655 248.156 377.78 247.431C380.974 246.364 383.16 243.03 385.437 240.102C387.804 239.428 389.163 238.674 390.888 237.353C391.824 238.201 393.219 237.996 394.522 237.468C394.346 239.425 405.182 243.568 407.759 244.797C412.286 249 416.721 252.637 421.523 256.76C421.696 257.218 422.236 258.081 422.409 258.539C423.101 258.195 424.238 258.003 424.761 257.508C425.449 256.857 425.799 255.905 426.318 255.104C428.914 254.493 431.509 253.882 434.105 253.271C430.644 243.041 427.183 232.811 423.722 222.581C421.516 223.65 419.402 224.395 417.195 225.464L417.195 225.463Z" fill="#A96E35"/>
<path fill-rule="evenodd" clip-rule="evenodd" d="M410.995 227.283C410.767 226.635 411.188 225.216 412.281 224.5C422.773 217.778 432.799 213.769 443.057 208.403L451.383 247.635C439.816 251.84 435.035 254.278 427.708 258.068C427.258 258.136 425.913 257.581 425.192 256.998C425.913 257.104 427.077 257.475 427.355 257.316C427.952 256.974 427.661 254.711 427.347 253.48C426.011 248.257 424.672 242.816 422.405 237.954C420.345 233.537 418.064 227.427 414.367 225.644C413.832 225.386 412.974 225.27 412.463 225.533C412.059 225.741 411.712 226.363 411.621 227.056L410.995 227.282L410.995 227.283Z" fill="black"/>
</g>
<defs>
<filter id="filter0_d" x="192" y="429" width="446" height="83" filterUnits="userSpaceOnUse" color-interpolation-filters="sRGB">
<feFlood flood-opacity="0" result="BackgroundImageFix"/>
<feColorMatrix in="SourceAlpha" type="matrix" values="0 0 0 0 0 0 0 0 0 0 0 0 0 0 0 0 0 0 127 0"/>
<feOffset dy="2"/>
<feGaussianBlur stdDeviation="5"/>
<feColorMatrix type="matrix" values="0 0 0 0 0 0 0 0 0 0 0 0 0 0 0 0 0 0 0.23 0"/>
<feBlend mode="normal" in2="BackgroundImageFix" result="effect1_dropShadow"/>
<feBlend mode="normal" in="SourceGraphic" in2="effect1_dropShadow" result="shape"/>
</filter>
<linearGradient id="paint0_linear" x1="345.272" y1="252.877" x2="423.051" y2="252.877" gradientUnits="userSpaceOnUse">
<stop offset="0.119792" stop-color="#C28549"/>
<stop offset="1" stop-color="#E7B17D"/>
</linearGradient>
<clipPath id="clip0">
<rect width="24" height="24" fill="white" transform="translate(321.123 102.659) rotate(-51.0273)"/>
</clipPath>
<clipPath id="clip1">
<rect width="24" height="24" fill="white" transform="translate(509 174.659) rotate(-51.0273)"/>
</clipPath>
<clipPath id="clip2">
<rect width="42" height="42" fill="white" transform="translate(320.097 116) rotate(47.7657)"/>
</clipPath>
<clipPath id="clip3">
<rect width="42" height="42" fill="white" transform="translate(420.097 60) rotate(47.7657)"/>
</clipPath>
<clipPath id="clip4">
<rect width="136" height="90" fill="white" transform="translate(332 210)"/>
</clipPath>
</defs>
</svg>
