<svg width="511" height="511" viewBox="0 0 511 511" fill="none" xmlns="http://www.w3.org/2000/svg">
<rect width="511" height="511" fill="#C59900"/>
<g clip-path="url(#clip0)">
<path d="M336.827 131.79V250.37C336.827 253.73 339.55 256.451 342.91 256.451H361.668V424.138H398.155V256.575H416.855C420.215 256.575 422.935 253.852 422.935 250.492V131.911C422.935 106.585 403.628 86 379.882 86C356.134 86 336.827 106.463 336.827 131.79ZM373.831 411.975V383.758H385.994V411.975H373.831ZM385.992 371.598H373.831V256.575H385.992V371.598ZM410.775 244.502H348.99V234.622H410.804L410.775 244.502ZM410.775 132.004V222.459H348.99V131.79C348.99 113.182 362.854 98.0412 379.912 98.0412C396.97 98.0412 410.804 113.182 410.804 131.79L410.775 132.004Z" fill="white"/>
<path d="M392.075 215.922C395.435 215.922 398.155 213.201 398.155 209.842V127.746C398.155 124.388 395.435 121.665 392.075 121.665C388.715 121.665 385.995 124.388 385.995 127.746V209.842C385.992 213.201 388.715 215.922 392.075 215.922Z" fill="white"/>
<path d="M90.2409 183.784C92.5417 184.712 95.1789 184.145 96.8994 182.354C112.434 167.812 132.813 159.555 154.091 159.187C158.966 159.193 163.829 159.638 168.625 160.525C168.991 160.557 169.354 160.557 169.72 160.525C170.176 160.525 180.696 160.738 180.696 178.008V418.058C180.696 421.417 183.416 424.138 186.776 424.138H233.965C237.325 424.138 240.046 421.417 240.046 418.058V178.737C240.046 178.554 240.046 178.372 240.046 178.191C239.777 173.416 241.197 168.701 244.06 164.872C247.219 161.799 251.554 160.245 255.948 160.616H296.569C299.929 160.616 302.652 157.895 302.652 154.535V98.4657C302.652 95.106 299.929 92.3853 296.569 92.3853H189.059C188.025 92.3853 86.4409 96.7633 86.4409 178.128C86.4342 180.611 87.9356 182.853 90.2409 183.784ZM192.888 411.824V205.22H227.885V411.975L192.888 411.824ZM290.489 148.421H261.999V104.548H290.489V148.421ZM189.239 104.548H249.838V148.97C244.189 149.742 238.973 152.424 235.061 156.572C229.922 162.853 227.357 170.848 227.885 178.95V193.24H192.888V178.037C192.888 155.172 178.476 148.696 170.359 148.392C164.99 147.428 159.546 146.938 154.091 146.933C134.667 147.1 115.748 153.14 99.8188 164.262C110.489 107.922 185.986 104.668 189.239 104.548Z" fill="white"/>
</g>
<defs>
<clipPath id="clip0">
<rect width="338" height="338" fill="white" transform="translate(86 86)"/>
</clipPath>
</defs>
</svg>
