<svg width="511" height="511" viewBox="0 0 511 511" fill="none" xmlns="http://www.w3.org/2000/svg">
<rect width="511" height="511" fill="#CB7878"/>
<g clip-path="url(#clip0)">
<path d="M170.661 191.871C177.915 191.871 183.387 182.755 183.387 170.661C183.387 158.568 177.915 149.452 170.661 149.452C163.408 149.452 157.936 158.568 157.936 170.661C157.936 182.755 163.408 191.871 170.661 191.871ZM170.661 157.935C171.718 157.935 174.903 162.449 174.903 170.661C174.903 178.874 171.718 183.387 170.661 183.387C169.605 183.387 166.419 178.874 166.419 170.661C166.419 162.449 169.605 157.935 170.661 157.935Z" fill="white"/>
<path d="M340.339 124H170.661C154.012 124 140.968 144.497 140.968 170.661V268.226C140.968 277.597 148.565 285.194 157.936 285.194C160.923 285.176 163.851 284.362 166.419 282.835V293.677C166.419 303.048 174.016 310.645 183.387 310.645C192.758 310.645 200.355 303.048 200.355 293.677V265.867C202.923 267.394 205.851 268.208 208.839 268.226C218.21 268.226 225.806 260.629 225.806 251.258V217.323H340.339C348.729 217.323 356.199 212.109 361.548 203.596V213.081C361.548 222.452 353.952 230.048 344.581 230.048H276.71C264.304 230.071 253.718 239.027 251.64 251.258H247.016C244.674 251.258 242.774 253.157 242.774 255.5V268.226H238.532C236.19 268.226 234.29 270.125 234.29 272.468V382.758C234.29 385.101 236.19 387 238.532 387H272.468C274.81 387 276.71 385.101 276.71 382.758V272.468C276.71 270.125 274.81 268.226 272.468 268.226H268.226V255.5C268.226 253.157 266.327 251.258 263.984 251.258H260.344C262.273 243.789 268.996 238.561 276.71 238.532H344.581C358.632 238.518 370.018 227.132 370.032 213.081V170.661C370.032 144.497 356.988 124 340.339 124ZM251.258 259.742H259.742V268.226H251.258V259.742ZM268.226 276.71V378.516H242.774V276.71H268.226ZM170.661 132.484C182.157 132.484 191.871 149.965 191.871 170.661C191.871 191.358 182.157 208.839 170.661 208.839C159.166 208.839 149.452 191.358 149.452 170.661C149.452 149.965 159.166 132.484 170.661 132.484ZM217.323 251.258C217.323 255.944 213.524 259.742 208.839 259.742C204.153 259.742 200.355 255.944 200.355 251.258V238.532H191.871V293.677C191.871 298.363 188.073 302.161 183.387 302.161C178.701 302.161 174.903 298.363 174.903 293.677V259.742H166.419V268.226C166.419 272.912 162.621 276.71 157.936 276.71C153.25 276.71 149.452 272.912 149.452 268.226V203.596C154.801 212.109 162.271 217.323 170.661 217.323H217.323V251.258ZM340.339 208.839H187.905C196.499 198.018 200.917 184.468 200.355 170.661C200.917 156.854 196.499 143.305 187.905 132.484H340.339C351.834 132.484 361.548 149.965 361.548 170.661C361.548 191.358 351.834 208.839 340.339 208.839Z" fill="white"/>
<path d="M259.742 361.548H251.258V370.032H259.742V361.548Z" fill="white"/>
</g>
<defs>
<clipPath id="clip0">
<rect width="263" height="263" fill="white" transform="translate(124 124)"/>
</clipPath>
</defs>
</svg>
